<mxfile host="app.diagrams.net" modified="2024-07-06T16:44:49.038Z" agent="Mozilla/5.0 (Macintosh; Intel Mac OS X 10_15_7) AppleWebKit/605.1.15 (KHTML, like Gecko) Version/17.5 Safari/605.1.15" etag="8qs9wi8B6dbOdbFWgeLs" version="24.6.4" type="github">
  <diagram name="Page-1" id="l3IdfPpWL5j4SiQZerBx">
    <mxGraphModel dx="1193" dy="1075" grid="1" gridSize="10" guides="1" tooltips="1" connect="1" arrows="1" fold="1" page="1" pageScale="1" pageWidth="827" pageHeight="1169" math="0" shadow="0">
      <root>
        <mxCell id="0" />
        <mxCell id="1" parent="0" />
        <mxCell id="-8XFwzB2doiiyMq0dGog-4" value="" style="edgeStyle=orthogonalEdgeStyle;rounded=0;orthogonalLoop=1;jettySize=auto;html=1;strokeColor=#736CA8;fontColor=#1A1A1A;" edge="1" parent="1" source="-8XFwzB2doiiyMq0dGog-1" target="-8XFwzB2doiiyMq0dGog-3">
          <mxGeometry relative="1" as="geometry" />
        </mxCell>
        <mxCell id="-8XFwzB2doiiyMq0dGog-1" value="" style="shape=process;whiteSpace=wrap;html=1;backgroundOutline=1;size=0.038461538461538464;labelBackgroundColor=none;fillColor=#5D7F99;strokeColor=#D0CEE2;fontColor=#1A1A1A;" vertex="1" parent="1">
          <mxGeometry x="251" y="27" width="326" height="80" as="geometry" />
        </mxCell>
        <mxCell id="-8XFwzB2doiiyMq0dGog-2" style="edgeStyle=orthogonalEdgeStyle;rounded=0;orthogonalLoop=1;jettySize=auto;html=1;exitX=0.5;exitY=1;exitDx=0;exitDy=0;labelBackgroundColor=none;strokeColor=#736CA8;fontColor=default;" edge="1" parent="1" source="-8XFwzB2doiiyMq0dGog-1" target="-8XFwzB2doiiyMq0dGog-1">
          <mxGeometry relative="1" as="geometry" />
        </mxCell>
        <mxCell id="-8XFwzB2doiiyMq0dGog-3" value="" style="shape=parallelogram;perimeter=parallelogramPerimeter;whiteSpace=wrap;html=1;fixedSize=1;strokeColor=#D0CEE2;fontColor=#1A1A1A;fillColor=#5D7F99;size=30;" vertex="1" parent="1">
          <mxGeometry x="284" y="184" width="260" height="60" as="geometry" />
        </mxCell>
        <mxCell id="-8XFwzB2doiiyMq0dGog-9" value="" style="edgeStyle=orthogonalEdgeStyle;rounded=0;orthogonalLoop=1;jettySize=auto;html=1;strokeColor=#736CA8;fontColor=#1A1A1A;" edge="1" parent="1" source="-8XFwzB2doiiyMq0dGog-10" target="-8XFwzB2doiiyMq0dGog-12">
          <mxGeometry relative="1" as="geometry" />
        </mxCell>
        <mxCell id="-8XFwzB2doiiyMq0dGog-10" value="" style="shape=process;whiteSpace=wrap;html=1;backgroundOutline=1;size=0.038461538461538464;labelBackgroundColor=none;fillColor=#5D7F99;strokeColor=#D0CEE2;fontColor=#1A1A1A;" vertex="1" parent="1">
          <mxGeometry x="1101" y="40" width="280" height="60" as="geometry" />
        </mxCell>
        <mxCell id="-8XFwzB2doiiyMq0dGog-11" style="edgeStyle=orthogonalEdgeStyle;rounded=0;orthogonalLoop=1;jettySize=auto;html=1;exitX=0.5;exitY=1;exitDx=0;exitDy=0;labelBackgroundColor=none;strokeColor=#736CA8;fontColor=default;" edge="1" parent="1" source="-8XFwzB2doiiyMq0dGog-10" target="-8XFwzB2doiiyMq0dGog-10">
          <mxGeometry relative="1" as="geometry" />
        </mxCell>
        <mxCell id="-8XFwzB2doiiyMq0dGog-12" value="" style="shape=parallelogram;perimeter=parallelogramPerimeter;whiteSpace=wrap;html=1;fixedSize=1;strokeColor=#D0CEE2;fontColor=#1A1A1A;fillColor=#5D7F99;size=30;" vertex="1" parent="1">
          <mxGeometry x="1111" y="170" width="260" height="60" as="geometry" />
        </mxCell>
        <mxCell id="-8XFwzB2doiiyMq0dGog-13" value="" style="shape=parallelogram;perimeter=parallelogramPerimeter;whiteSpace=wrap;html=1;fixedSize=1;strokeColor=#D0CEE2;fontColor=#1A1A1A;fillColor=#5D7F99;size=30;" vertex="1" parent="1">
          <mxGeometry x="284" y="310" width="260" height="60" as="geometry" />
        </mxCell>
        <mxCell id="-8XFwzB2doiiyMq0dGog-14" value="Classname" style="swimlane;fontStyle=0;childLayout=stackLayout;horizontal=1;startSize=26;fillColor=none;horizontalStack=0;resizeParent=1;resizeParentMax=0;resizeLast=0;collapsible=1;marginBottom=0;whiteSpace=wrap;html=1;" vertex="1" parent="1">
          <mxGeometry x="40" y="400" width="160" height="208" as="geometry" />
        </mxCell>
        <mxCell id="-8XFwzB2doiiyMq0dGog-15" value="+ field: type" style="text;strokeColor=none;fillColor=none;align=left;verticalAlign=top;spacingLeft=4;spacingRight=4;overflow=hidden;rotatable=0;points=[[0,0.5],[1,0.5]];portConstraint=eastwest;whiteSpace=wrap;html=1;" vertex="1" parent="-8XFwzB2doiiyMq0dGog-14">
          <mxGeometry y="26" width="160" height="26" as="geometry" />
        </mxCell>
        <mxCell id="-8XFwzB2doiiyMq0dGog-16" value="+ field: type" style="text;strokeColor=none;fillColor=none;align=left;verticalAlign=top;spacingLeft=4;spacingRight=4;overflow=hidden;rotatable=0;points=[[0,0.5],[1,0.5]];portConstraint=eastwest;whiteSpace=wrap;html=1;" vertex="1" parent="-8XFwzB2doiiyMq0dGog-14">
          <mxGeometry y="52" width="160" height="26" as="geometry" />
        </mxCell>
        <mxCell id="-8XFwzB2doiiyMq0dGog-17" value="+ field: type" style="text;strokeColor=none;fillColor=none;align=left;verticalAlign=top;spacingLeft=4;spacingRight=4;overflow=hidden;rotatable=0;points=[[0,0.5],[1,0.5]];portConstraint=eastwest;whiteSpace=wrap;html=1;" vertex="1" parent="-8XFwzB2doiiyMq0dGog-14">
          <mxGeometry y="78" width="160" height="26" as="geometry" />
        </mxCell>
        <mxCell id="-8XFwzB2doiiyMq0dGog-19" value="+ field: type" style="text;strokeColor=none;fillColor=none;align=left;verticalAlign=top;spacingLeft=4;spacingRight=4;overflow=hidden;rotatable=0;points=[[0,0.5],[1,0.5]];portConstraint=eastwest;whiteSpace=wrap;html=1;" vertex="1" parent="-8XFwzB2doiiyMq0dGog-14">
          <mxGeometry y="104" width="160" height="26" as="geometry" />
        </mxCell>
        <mxCell id="-8XFwzB2doiiyMq0dGog-20" value="+ field: type" style="text;strokeColor=none;fillColor=none;align=left;verticalAlign=top;spacingLeft=4;spacingRight=4;overflow=hidden;rotatable=0;points=[[0,0.5],[1,0.5]];portConstraint=eastwest;whiteSpace=wrap;html=1;" vertex="1" parent="-8XFwzB2doiiyMq0dGog-14">
          <mxGeometry y="130" width="160" height="26" as="geometry" />
        </mxCell>
        <mxCell id="-8XFwzB2doiiyMq0dGog-21" value="+ field: type" style="text;strokeColor=none;fillColor=none;align=left;verticalAlign=top;spacingLeft=4;spacingRight=4;overflow=hidden;rotatable=0;points=[[0,0.5],[1,0.5]];portConstraint=eastwest;whiteSpace=wrap;html=1;" vertex="1" parent="-8XFwzB2doiiyMq0dGog-14">
          <mxGeometry y="156" width="160" height="26" as="geometry" />
        </mxCell>
        <mxCell id="-8XFwzB2doiiyMq0dGog-18" value="+ field: type" style="text;strokeColor=none;fillColor=none;align=left;verticalAlign=top;spacingLeft=4;spacingRight=4;overflow=hidden;rotatable=0;points=[[0,0.5],[1,0.5]];portConstraint=eastwest;whiteSpace=wrap;html=1;" vertex="1" parent="-8XFwzB2doiiyMq0dGog-14">
          <mxGeometry y="182" width="160" height="26" as="geometry" />
        </mxCell>
        <mxCell id="-8XFwzB2doiiyMq0dGog-22" value="Object" style="html=1;whiteSpace=wrap;" vertex="1" parent="1">
          <mxGeometry x="240" y="430" width="110" height="50" as="geometry" />
        </mxCell>
        <mxCell id="-8XFwzB2doiiyMq0dGog-24" value="" style="shape=trapezoid;perimeter=trapezoidPerimeter;whiteSpace=wrap;html=1;fixedSize=1;" vertex="1" parent="1">
          <mxGeometry x="235" y="512.5" width="120" height="60" as="geometry" />
        </mxCell>
        <mxCell id="-8XFwzB2doiiyMq0dGog-26" value="Block" style="verticalAlign=top;align=left;spacingTop=8;spacingLeft=2;spacingRight=12;shape=cube;size=30;direction=south;fontStyle=4;html=1;whiteSpace=wrap;" vertex="1" parent="1">
          <mxGeometry x="453" y="440" width="124" height="85" as="geometry" />
        </mxCell>
        <mxCell id="-8XFwzB2doiiyMq0dGog-27" value="" style="whiteSpace=wrap;html=1;align=left;verticalAlign=top;spacingTop=8;spacingLeft=2;spacingRight=12;fontStyle=4;" vertex="1" parent="1">
          <mxGeometry x="600" y="452.5" width="120" height="60" as="geometry" />
        </mxCell>
        <mxCell id="-8XFwzB2doiiyMq0dGog-30" value="Horizontal Tree Layout" style="swimlane;startSize=20;horizontal=0;childLayout=treeLayout;horizontalTree=1;sortEdges=1;resizable=0;containerType=tree;fontSize=12;" vertex="1" parent="1">
          <mxGeometry x="40" y="720" width="760" height="696" as="geometry" />
        </mxCell>
        <mxCell id="-8XFwzB2doiiyMq0dGog-31" value="Root" style="whiteSpace=wrap;html=1;" vertex="1" parent="-8XFwzB2doiiyMq0dGog-30">
          <mxGeometry x="40" y="264" width="100" height="40" as="geometry" />
        </mxCell>
        <mxCell id="-8XFwzB2doiiyMq0dGog-32" value="Child 1" style="whiteSpace=wrap;html=1;" vertex="1" parent="-8XFwzB2doiiyMq0dGog-30">
          <mxGeometry x="190" y="100" width="100" height="40" as="geometry" />
        </mxCell>
        <mxCell id="-8XFwzB2doiiyMq0dGog-33" value="" style="edgeStyle=elbowEdgeStyle;elbow=horizontal;html=1;rounded=1;curved=0;sourcePerimeterSpacing=0;targetPerimeterSpacing=0;startSize=6;endSize=6;" edge="1" parent="-8XFwzB2doiiyMq0dGog-30" source="-8XFwzB2doiiyMq0dGog-31" target="-8XFwzB2doiiyMq0dGog-32">
          <mxGeometry relative="1" as="geometry" />
        </mxCell>
        <mxCell id="-8XFwzB2doiiyMq0dGog-34" value="Child 2" style="whiteSpace=wrap;html=1;" vertex="1" parent="-8XFwzB2doiiyMq0dGog-30">
          <mxGeometry x="190" y="428" width="100" height="40" as="geometry" />
        </mxCell>
        <mxCell id="-8XFwzB2doiiyMq0dGog-35" value="" style="edgeStyle=elbowEdgeStyle;elbow=horizontal;html=1;rounded=1;curved=0;sourcePerimeterSpacing=0;targetPerimeterSpacing=0;startSize=6;endSize=6;" edge="1" parent="-8XFwzB2doiiyMq0dGog-30" source="-8XFwzB2doiiyMq0dGog-31" target="-8XFwzB2doiiyMq0dGog-34">
          <mxGeometry relative="1" as="geometry" />
        </mxCell>
        <mxCell id="-8XFwzB2doiiyMq0dGog-36" value="" style="edgeStyle=elbowEdgeStyle;elbow=horizontal;html=1;rounded=1;curved=0;sourcePerimeterSpacing=0;targetPerimeterSpacing=0;startSize=6;endSize=6;" edge="1" target="-8XFwzB2doiiyMq0dGog-37" source="-8XFwzB2doiiyMq0dGog-32" parent="-8XFwzB2doiiyMq0dGog-30">
          <mxGeometry relative="1" as="geometry">
            <mxPoint x="180" y="788" as="sourcePoint" />
          </mxGeometry>
        </mxCell>
        <mxCell id="-8XFwzB2doiiyMq0dGog-37" value="Child 1" style="whiteSpace=wrap;html=1;" vertex="1" parent="-8XFwzB2doiiyMq0dGog-30">
          <mxGeometry x="340" y="60" width="100" height="40" as="geometry" />
        </mxCell>
        <mxCell id="-8XFwzB2doiiyMq0dGog-38" value="" style="edgeStyle=elbowEdgeStyle;elbow=horizontal;html=1;rounded=1;curved=0;sourcePerimeterSpacing=0;targetPerimeterSpacing=0;startSize=6;endSize=6;" edge="1" target="-8XFwzB2doiiyMq0dGog-39" source="-8XFwzB2doiiyMq0dGog-37" parent="-8XFwzB2doiiyMq0dGog-30">
          <mxGeometry relative="1" as="geometry">
            <mxPoint x="330" y="748" as="sourcePoint" />
          </mxGeometry>
        </mxCell>
        <mxCell id="-8XFwzB2doiiyMq0dGog-39" value="Child 1" style="whiteSpace=wrap;html=1;" vertex="1" parent="-8XFwzB2doiiyMq0dGog-30">
          <mxGeometry x="490" y="60" width="100" height="40" as="geometry" />
        </mxCell>
        <mxCell id="-8XFwzB2doiiyMq0dGog-40" value="" style="edgeStyle=elbowEdgeStyle;elbow=horizontal;html=1;rounded=1;curved=0;sourcePerimeterSpacing=0;targetPerimeterSpacing=0;startSize=6;endSize=6;" edge="1" target="-8XFwzB2doiiyMq0dGog-41" source="-8XFwzB2doiiyMq0dGog-39" parent="-8XFwzB2doiiyMq0dGog-30">
          <mxGeometry relative="1" as="geometry">
            <mxPoint x="480" y="748" as="sourcePoint" />
          </mxGeometry>
        </mxCell>
        <mxCell id="-8XFwzB2doiiyMq0dGog-41" value="Child 1" style="whiteSpace=wrap;html=1;" vertex="1" parent="-8XFwzB2doiiyMq0dGog-30">
          <mxGeometry x="640" y="20" width="100" height="40" as="geometry" />
        </mxCell>
        <mxCell id="-8XFwzB2doiiyMq0dGog-42" value="" style="edgeStyle=elbowEdgeStyle;elbow=horizontal;html=1;rounded=1;curved=0;sourcePerimeterSpacing=0;targetPerimeterSpacing=0;startSize=6;endSize=6;" edge="1" target="-8XFwzB2doiiyMq0dGog-43" source="-8XFwzB2doiiyMq0dGog-39" parent="-8XFwzB2doiiyMq0dGog-30">
          <mxGeometry relative="1" as="geometry">
            <mxPoint x="630" y="748" as="sourcePoint" />
          </mxGeometry>
        </mxCell>
        <mxCell id="-8XFwzB2doiiyMq0dGog-43" value="Child 1" style="whiteSpace=wrap;html=1;" vertex="1" parent="-8XFwzB2doiiyMq0dGog-30">
          <mxGeometry x="640" y="100" width="100" height="40" as="geometry" />
        </mxCell>
        <mxCell id="-8XFwzB2doiiyMq0dGog-44" value="" style="edgeStyle=elbowEdgeStyle;elbow=horizontal;html=1;rounded=1;curved=0;sourcePerimeterSpacing=0;targetPerimeterSpacing=0;startSize=6;endSize=6;" edge="1" target="-8XFwzB2doiiyMq0dGog-45" source="-8XFwzB2doiiyMq0dGog-32" parent="-8XFwzB2doiiyMq0dGog-30">
          <mxGeometry relative="1" as="geometry">
            <mxPoint x="330" y="828" as="sourcePoint" />
          </mxGeometry>
        </mxCell>
        <mxCell id="-8XFwzB2doiiyMq0dGog-45" value="Child 1" style="whiteSpace=wrap;html=1;" vertex="1" parent="-8XFwzB2doiiyMq0dGog-30">
          <mxGeometry x="340" y="140" width="100" height="40" as="geometry" />
        </mxCell>
        <mxCell id="-8XFwzB2doiiyMq0dGog-46" value="" style="edgeStyle=elbowEdgeStyle;elbow=horizontal;html=1;rounded=1;curved=0;sourcePerimeterSpacing=0;targetPerimeterSpacing=0;startSize=6;endSize=6;" edge="1" target="-8XFwzB2doiiyMq0dGog-47" source="-8XFwzB2doiiyMq0dGog-34" parent="-8XFwzB2doiiyMq0dGog-30">
          <mxGeometry relative="1" as="geometry">
            <mxPoint x="180" y="1004" as="sourcePoint" />
          </mxGeometry>
        </mxCell>
        <mxCell id="-8XFwzB2doiiyMq0dGog-47" value="Child 2" style="whiteSpace=wrap;html=1;" vertex="1" parent="-8XFwzB2doiiyMq0dGog-30">
          <mxGeometry x="340" y="220" width="100" height="40" as="geometry" />
        </mxCell>
        <mxCell id="-8XFwzB2doiiyMq0dGog-48" value="" style="edgeStyle=elbowEdgeStyle;elbow=horizontal;html=1;rounded=1;curved=0;sourcePerimeterSpacing=0;targetPerimeterSpacing=0;startSize=6;endSize=6;" edge="1" target="-8XFwzB2doiiyMq0dGog-49" source="-8XFwzB2doiiyMq0dGog-34" parent="-8XFwzB2doiiyMq0dGog-30">
          <mxGeometry relative="1" as="geometry">
            <mxPoint x="330" y="1064" as="sourcePoint" />
          </mxGeometry>
        </mxCell>
        <mxCell id="-8XFwzB2doiiyMq0dGog-49" value="Child 2" style="whiteSpace=wrap;html=1;" vertex="1" parent="-8XFwzB2doiiyMq0dGog-30">
          <mxGeometry x="340" y="428" width="100" height="40" as="geometry" />
        </mxCell>
        <mxCell id="-8XFwzB2doiiyMq0dGog-50" value="" style="edgeStyle=elbowEdgeStyle;elbow=horizontal;html=1;rounded=1;curved=0;sourcePerimeterSpacing=0;targetPerimeterSpacing=0;startSize=6;endSize=6;" edge="1" target="-8XFwzB2doiiyMq0dGog-51" source="-8XFwzB2doiiyMq0dGog-34" parent="-8XFwzB2doiiyMq0dGog-30">
          <mxGeometry relative="1" as="geometry">
            <mxPoint x="330" y="1084" as="sourcePoint" />
          </mxGeometry>
        </mxCell>
        <mxCell id="-8XFwzB2doiiyMq0dGog-51" value="Child 2" style="whiteSpace=wrap;html=1;" vertex="1" parent="-8XFwzB2doiiyMq0dGog-30">
          <mxGeometry x="340" y="636" width="100" height="40" as="geometry" />
        </mxCell>
        <mxCell id="-8XFwzB2doiiyMq0dGog-52" value="" style="edgeStyle=elbowEdgeStyle;elbow=horizontal;html=1;rounded=1;curved=0;sourcePerimeterSpacing=0;targetPerimeterSpacing=0;startSize=6;endSize=6;" edge="1" target="-8XFwzB2doiiyMq0dGog-53" source="-8XFwzB2doiiyMq0dGog-49" parent="-8XFwzB2doiiyMq0dGog-30">
          <mxGeometry relative="1" as="geometry">
            <mxPoint x="330" y="1104" as="sourcePoint" />
          </mxGeometry>
        </mxCell>
        <mxCell id="-8XFwzB2doiiyMq0dGog-53" value="Child 2" style="whiteSpace=wrap;html=1;" vertex="1" parent="-8XFwzB2doiiyMq0dGog-30">
          <mxGeometry x="490" y="268" width="100" height="40" as="geometry" />
        </mxCell>
        <mxCell id="-8XFwzB2doiiyMq0dGog-54" value="" style="edgeStyle=elbowEdgeStyle;elbow=horizontal;html=1;rounded=1;curved=0;sourcePerimeterSpacing=0;targetPerimeterSpacing=0;startSize=6;endSize=6;" edge="1" target="-8XFwzB2doiiyMq0dGog-55" source="-8XFwzB2doiiyMq0dGog-49" parent="-8XFwzB2doiiyMq0dGog-30">
          <mxGeometry relative="1" as="geometry">
            <mxPoint x="480" y="1104" as="sourcePoint" />
          </mxGeometry>
        </mxCell>
        <mxCell id="-8XFwzB2doiiyMq0dGog-55" value="Child 2" style="whiteSpace=wrap;html=1;" vertex="1" parent="-8XFwzB2doiiyMq0dGog-30">
          <mxGeometry x="490" y="348" width="100" height="40" as="geometry" />
        </mxCell>
        <mxCell id="-8XFwzB2doiiyMq0dGog-56" value="" style="edgeStyle=elbowEdgeStyle;elbow=horizontal;html=1;rounded=1;curved=0;sourcePerimeterSpacing=0;targetPerimeterSpacing=0;startSize=6;endSize=6;" edge="1" target="-8XFwzB2doiiyMq0dGog-57" source="-8XFwzB2doiiyMq0dGog-49" parent="-8XFwzB2doiiyMq0dGog-30">
          <mxGeometry relative="1" as="geometry">
            <mxPoint x="480" y="1120" as="sourcePoint" />
          </mxGeometry>
        </mxCell>
        <mxCell id="-8XFwzB2doiiyMq0dGog-57" value="Child 2" style="whiteSpace=wrap;html=1;" vertex="1" parent="-8XFwzB2doiiyMq0dGog-30">
          <mxGeometry x="490" y="428" width="100" height="40" as="geometry" />
        </mxCell>
        <mxCell id="-8XFwzB2doiiyMq0dGog-58" value="" style="edgeStyle=elbowEdgeStyle;elbow=horizontal;html=1;rounded=1;curved=0;sourcePerimeterSpacing=0;targetPerimeterSpacing=0;startSize=6;endSize=6;" edge="1" target="-8XFwzB2doiiyMq0dGog-59" source="-8XFwzB2doiiyMq0dGog-49" parent="-8XFwzB2doiiyMq0dGog-30">
          <mxGeometry relative="1" as="geometry">
            <mxPoint x="480" y="1136" as="sourcePoint" />
          </mxGeometry>
        </mxCell>
        <mxCell id="-8XFwzB2doiiyMq0dGog-59" value="Child 2" style="whiteSpace=wrap;html=1;" vertex="1" parent="-8XFwzB2doiiyMq0dGog-30">
          <mxGeometry x="490" y="508" width="100" height="40" as="geometry" />
        </mxCell>
        <mxCell id="-8XFwzB2doiiyMq0dGog-60" value="" style="edgeStyle=elbowEdgeStyle;elbow=horizontal;html=1;rounded=1;curved=0;sourcePerimeterSpacing=0;targetPerimeterSpacing=0;startSize=6;endSize=6;" edge="1" target="-8XFwzB2doiiyMq0dGog-61" source="-8XFwzB2doiiyMq0dGog-49" parent="-8XFwzB2doiiyMq0dGog-30">
          <mxGeometry relative="1" as="geometry">
            <mxPoint x="480" y="1152" as="sourcePoint" />
          </mxGeometry>
        </mxCell>
        <mxCell id="-8XFwzB2doiiyMq0dGog-61" value="Child 2" style="whiteSpace=wrap;html=1;" vertex="1" parent="-8XFwzB2doiiyMq0dGog-30">
          <mxGeometry x="490" y="588" width="100" height="40" as="geometry" />
        </mxCell>
        <mxCell id="-8XFwzB2doiiyMq0dGog-62" value="" style="whiteSpace=wrap;html=1;shape=mxgraph.basic.cloud_callout" vertex="1" parent="1">
          <mxGeometry x="840" y="960" width="280" height="200" as="geometry" />
        </mxCell>
        <mxCell id="-8XFwzB2doiiyMq0dGog-63" value="" style="whiteSpace=wrap;html=1;shape=mxgraph.basic.loud_callout" vertex="1" parent="1">
          <mxGeometry x="640" y="20" width="190" height="140" as="geometry" />
        </mxCell>
      </root>
    </mxGraphModel>
  </diagram>
</mxfile>
